<svg height="512pt" viewBox="0 0 512 512.0078" width="512pt" xmlns="http://www.w3.org/2000/svg"><path d="m452.269531 76.800781v171.09375l-211.113281 195.839844h-198.484375c-18.851563 0-34.132813-15.28125-34.132813-34.132813v-332.800781c0-18.851562 15.28125-34.132812 34.132813-34.132812h375.464844c18.851562 0 34.132812 15.28125 34.132812 34.132812zm0 0" fill="#b2cdf8"/><path d="m426.671875 76.800781v171.09375l-211.117187 195.839844h-172.882813c-18.851563 0-34.132813-15.28125-34.132813-34.132813v-332.800781c0-18.851562 15.28125-34.132812 34.132813-34.132812h349.867187c18.851563 0 34.132813 15.28125 34.132813 34.132812zm0 0" fill="#e7ebf4"/><path d="m68.269531 145.066406h324.269531c14.136719 0 25.597657 11.460938 25.597657 25.601563v221.867187c0 14.136719-11.460938 25.597656-25.597657 25.597656h-324.269531c-14.136719 0-25.597656-11.460937-25.597656-25.597656v-221.867187c0-14.140625 11.460937-25.601563 25.597656-25.601563zm0 0" fill="#e7ebf4"/><path d="m452.269531 76.800781v42.664063h-443.730469v-42.664063c0-18.851562 15.28125-34.132812 34.132813-34.132812h375.464844c18.851562 0 34.132812 15.28125 34.132812 34.132812zm0 0" fill="#b2cdf8"/><path d="m503.472656 358.398438c0 80.121093-64.949218 145.066406-145.066406 145.066406-4.277344.019531-8.546875-.179688-12.800781-.59375-74.714844-6.804688-131.917969-69.449219-131.917969-144.472656 0-75.019532 57.203125-137.667969 131.917969-144.46875 4.253906-.414063 8.523437-.613282 12.800781-.597657 80.117188 0 145.066406 64.949219 145.066406 145.066407zm0 0" fill="#b2cdf8"/><path d="m426.671875 76.800781v42.664063h-418.132813v-42.664063c0-18.851562 15.28125-34.132812 34.132813-34.132812h349.867187c18.851563 0 34.132813 15.28125 34.132813 34.132812zm0 0" fill="#e7ebf4"/><path d="m477.871094 358.398438c0-79.785157-59.21875-144.46875-132.265625-144.46875-73.050781 0-132.269531 64.683593-132.269531 144.46875 0 79.789062 59.21875 144.472656 132.269531 144.472656 73.046875 0 132.265625-64.683594 132.265625-144.472656zm0 0" fill="#b2cdf8"/><path d="m469.335938 358.398438c0 61.269531-49.664063 110.933593-110.929688 110.933593-61.269531 0-110.933594-49.664062-110.933594-110.933593 0-61.265626 49.664063-110.933594 110.933594-110.933594 61.265625 0 110.929688 49.667968 110.929688 110.933594zm0 0" fill="#e7ebf4"/><path d="m76.804688 8.535156c9.425781 0 17.066406 7.640625 17.066406 17.066406v42.664063c0 9.425781-7.640625 17.066406-17.066406 17.066406-9.425782 0-17.066407-7.640625-17.066407-17.066406v-42.664063c0-9.425781 7.640625-17.066406 17.066407-17.066406zm0 0" fill="#dbe6f5"/><path d="m384.003906 8.535156c9.425782 0 17.066406 7.640625 17.066406 17.066406v42.664063c0 9.425781-7.640624 17.066406-17.066406 17.066406-9.425781 0-17.066406-7.640625-17.066406-17.066406v-42.664063c0-9.425781 7.640625-17.066406 17.066406-17.066406zm0 0" fill="#dbe6f5"/><path d="m59.738281 42.667969h-17.066406c-18.851563 0-34.132813 15.28125-34.132813 34.132812v332.800781c0 18.851563 15.28125 34.132813 34.132813 34.132813h25.597656c-18.851562 0-34.132812-15.28125-34.132812-34.132813v-332.800781c0-18.851562 15.28125-34.132812 34.132812-34.132812zm0 0" fill="#fff"/><path d="m.00390625 409.601562v-290.136718h17.06640575v290.136718zm0 0" fill="#fff"/><g fill="#51a1ff"><path d="m5.296875 349.183594c.480469.246094 1 .417968 1.535156.511718.5625.09375 1.132813.152344 1.707031.171876 2.257813-.035157 4.421876-.917969 6.058594-2.476563.769532-.816406 1.378906-1.769531 1.789063-2.816406 1.289062-3.179688.585937-6.824219-1.789063-9.300781-.816406-.769532-1.773437-1.378907-2.816406-1.789063-1.027344-.4375-2.128906-.671875-3.242188-.683594-2.261718.03125-4.421874.914063-6.058593 2.472657-3.300781 3.367187-3.300781 8.753906 0 12.117187l1.277343 1.023437c.476563.324219.992188.582032 1.539063.769532zm0 0"/><path d="m460.804688 244.242188v-167.441407c-.027344-23.554687-19.113282-42.640625-42.667969-42.667969h-8.53125v-8.53125c0-14.140624-11.460938-25.601562-25.601563-25.601562-14.136718 0-25.597656 11.460938-25.597656 25.601562v8.53125h-256v-8.53125c0-14.140624-11.464844-25.601562-25.601562-25.601562-14.140626 0-25.601563 11.460938-25.601563 25.601562v8.53125h-8.53125c-23.554687.027344-42.640625 19.113282-42.66796875 42.667969v230.398438c0 4.714843 3.82031275 8.535156 8.53515575 8.535156 4.710938 0 8.53125-3.820313 8.53125-8.535156v-179.199219h426.667969v102.777344c-59.316406-39.847656-138.285156-33.464844-190.429687 15.394531-52.140625 48.863281-63.640625 127.253906-27.726563 189.027344h-182.910156c-14.140625 0-25.601563-11.460938-25.601563-25.597657v-34.136718c0-4.710938-3.820312-8.53125-8.53125-8.53125-4.714843 0-8.53515575 3.820312-8.53515575 8.53125v34.136718c.02734375 23.550782 19.11328175 42.636719 42.66796875 42.664063h194.421875c35.53125 46.085937 94.074219 68.097656 151.164062 56.839844 57.089844-11.261719 102.894532-53.851563 118.265626-109.976563 15.371093-56.121094-2.335938-116.109375-45.71875-154.886718zm-85.332032-218.640626c0-4.714843 3.820313-8.535156 8.53125-8.535156 4.714844 0 8.535156 3.820313 8.535156 8.535156v42.664063c0 4.714844-3.820312 8.535156-8.535156 8.535156-4.710937 0-8.53125-3.820312-8.53125-8.535156zm-307.203125 0c0-4.714843 3.820313-8.535156 8.535157-8.535156 4.710937 0 8.53125 3.820313 8.53125 8.535156v42.664063c0 4.714844-3.820313 8.535156-8.53125 8.535156-4.714844 0-8.535157-3.820312-8.535157-8.535156zm-51.199219 85.332032v-34.132813c0-14.140625 11.460938-25.601562 25.601563-25.601562h8.53125v17.066406c0 14.140625 11.460937 25.601563 25.601563 25.601563 14.136718 0 25.601562-11.460938 25.601562-25.601563v-17.066406h256v17.066406c0 14.140625 11.460938 25.601563 25.597656 25.601563 14.140625 0 25.601563-11.460938 25.601563-25.601563v-17.066406h8.53125c14.140625 0 25.601562 11.460937 25.601562 25.601562v34.132813zm341.335938 384c-75.40625 0-136.535156-61.128906-136.535156-136.535156 0-75.402344 61.128906-136.53125 136.535156-136.53125 75.402344 0 136.53125 61.128906 136.53125 136.53125-.089844 75.371093-61.164062 136.445312-136.53125 136.535156zm0 0"/><path d="m358.40625 238.933594c-65.980469 0-119.46875 53.488281-119.46875 119.464844 0 65.980468 53.488281 119.46875 119.46875 119.46875 65.976562 0 119.464844-53.488282 119.464844-119.46875-.070313-65.949219-53.515625-119.394532-119.464844-119.464844zm0 221.867187c-56.554688 0-102.402344-45.847656-102.402344-102.402343 0-56.550782 45.847656-102.398438 102.402344-102.398438 56.550781 0 102.398438 45.847656 102.398438 102.398438-.0625 56.53125-45.871094 102.339843-102.398438 102.402343zm0 0"/><path d="m409.605469 196.265625c4.710937 0 8.53125-3.820313 8.53125-8.53125v-17.066406c0-14.140625-11.460938-25.601563-25.597657-25.601563h-324.269531c-14.136719 0-25.597656 11.460938-25.597656 25.601563v221.867187c0 14.136719 11.460937 25.597656 25.597656 25.597656h119.46875c4.710938 0 8.53125-3.820312 8.53125-8.53125 0-4.714843-3.820312-8.535156-8.53125-8.535156h-8.535156v-34.132812c4.714844 0 8.535156-3.820313 8.535156-8.535156 0-4.710938-3.820312-8.53125-8.535156-8.53125v-34.132813h8.535156c4.710938 0 8.53125-3.820313 8.53125-8.535156 0-4.710938-3.820312-8.53125-8.53125-8.53125h-8.535156v-34.132813h25.601563c4.710937 0 8.53125-3.824218 8.53125-8.535156s-3.820313-8.535156-8.53125-8.535156h-25.601563v-34.132813h42.667969v17.066407c0 4.714843 3.820312 8.535156 8.535156 8.535156 4.710938 0 8.53125-3.820313 8.53125-8.535156v-17.066407h25.601562c4.710938 0 8.53125-3.820312 8.53125-8.53125 0-4.714843-3.820312-8.535156-8.53125-8.535156h-25.601562v-34.132813h42.667969v25.601563c0 4.710937 3.820312 8.53125 8.53125 8.53125 4.714843 0 8.535156-3.820313 8.535156-8.53125v-25.601563h42.664063v17.066407c0 4.714843 3.824218 8.535156 8.535156 8.535156 4.710937 0 8.535156-3.820313 8.535156-8.535156v-17.066407h34.132812c4.710938 0 8.53125 3.820313 8.53125 8.535157v17.066406c0 4.710937 3.820313 8.53125 8.535157 8.53125zm-247.46875-34.132813v34.132813h-42.664063v-34.132813zm-93.867188 0h34.136719v34.132813h-42.667969v-25.597656c0-4.714844 3.820313-8.535157 8.53125-8.535157zm-8.53125 153.601563h42.667969v34.132813h-42.667969zm0-17.066406v-34.132813h42.667969v34.132813zm0-51.203125v-34.132813h42.667969v34.132813zm0 145.070312v-25.601562h42.667969v34.132812h-34.136719c-4.710937 0-8.53125-3.820312-8.53125-8.53125zm102.398438 8.53125h-42.664063v-34.132812h42.664063zm0-51.199218h-42.664063v-34.132813h42.664063zm0-51.199219h-42.664063v-34.132813h42.664063zm0-51.203125h-42.664063v-34.132813h42.664063zm59.734375-51.199219h-42.667969v-34.132813h42.667969zm0 0"/><path d="m392.539062 324.265625c0 4.714844 3.820313 8.535156 8.53125 8.535156 4.714844 0 8.535157-3.820312 8.535157-8.535156 0-21.09375-18.492188-38.621094-42.667969-42.027344v-.636719c0-4.714843-3.820312-8.535156-8.53125-8.535156-4.714844 0-8.535156 3.820313-8.535156 8.535156v.636719c-24.175782 3.414063-42.667969 20.933594-42.667969 42.027344s18.492187 38.621094 42.667969 42.027344v50.925781c-14.675782-2.855469-25.601563-12.796875-25.601563-24.683594 0-4.714844-3.820312-8.535156-8.53125-8.535156-4.714843 0-8.535156 3.820312-8.535156 8.535156 0 21.09375 18.492187 38.621094 42.667969 42.023438v.640625c0 4.714843 3.820312 8.535156 8.535156 8.535156 4.710938 0 8.53125-3.820313 8.53125-8.535156v-.640625c24.175781-3.410156 42.667969-20.929688 42.667969-42.023438 0-21.097656-18.492188-38.625-42.667969-42.027344v-50.929687c14.675781 2.859375 25.601562 12.792969 25.601562 24.6875zm-68.269531 0c0-11.894531 10.925781-21.828125 25.601563-24.6875v49.375c-14.675782-2.859375-25.601563-12.789063-25.601563-24.6875zm68.269531 68.269531c0 11.894532-10.925781 21.828125-25.601562 24.683594v-49.371094c14.675781 2.855469 25.601562 12.789063 25.601562 24.6875zm0 0"/></g></svg>