<?xml version="1.0" encoding="utf-8"?>
<!-- Generator: Adobe Illustrator 23.0.2, SVG Export Plug-In . SVG Version: 6.00 Build 0)  -->
<svg version="1.1" id="bold" xmlns="http://www.w3.org/2000/svg" xmlns:xlink="http://www.w3.org/1999/xlink" x="0px" y="0px"
	 viewBox="0 0 512 512" style="enable-background:new 0 0 512 512;" xml:space="preserve">
<style type="text/css">
	.st0{fill:#212529;}
</style>
<path class="st0" d="M474.7,181.3H37.3c-8.8,0-16-7.2-16-16v-42.7C21.3,90.3,47.6,64,80,64h352c32.4,0,58.7,26.3,58.7,58.7v42.7
	C490.7,174.2,483.5,181.3,474.7,181.3z"/>
<path class="st0" d="M64,202.7v250.7c0,32.4,26.3,58.7,58.7,58.7h266.7c32.4,0,58.7-26.3,58.7-58.7V202.7H64z M186.7,426.7
	c0,11.8-9.5,21.3-21.3,21.3s-21.3-9.6-21.3-21.3v-160c0-11.8,9.5-21.3,21.3-21.3s21.3,9.6,21.3,21.3V426.7z M277.3,426.7
	c0,11.8-9.5,21.3-21.3,21.3s-21.3-9.6-21.3-21.3v-160c0-11.8,9.5-21.3,21.3-21.3s21.3,9.6,21.3,21.3V426.7z M368,426.7
	c0,11.8-9.5,21.3-21.3,21.3s-21.3-9.6-21.3-21.3v-160c0-11.8,9.5-21.3,21.3-21.3S368,255,368,266.7V426.7z"/>
<path class="st0" d="M341.3,42.7v-5.3C341.3,16.7,324.6,0,304,0h-96c-20.6,0-37.3,16.7-37.3,37.3v5.3h170.6V42.7z"/>
</svg>
