<?xml version="1.0" encoding="utf-8"?>
<!-- Generator: Adobe Illustrator 23.0.2, SVG Export Plug-In . SVG Version: 6.00 Build 0)  -->
<svg version="1.1" id="Layer_1" xmlns="http://www.w3.org/2000/svg" xmlns:xlink="http://www.w3.org/1999/xlink" x="0px" y="0px"
	 viewBox="0 0 682 682" style="enable-background:new 0 0 682 682;" xml:space="preserve">
<style type="text/css">
	.st0{fill:#FFFFFF;}
</style>
<path class="st0" d="M426.4,493H117.3c-10.3,0-18.6-8.3-18.6-18.6c0-10.3,8.3-18.6,18.6-18.6h284.9l-44-39.3
	c-20.8,8.4-43.3,12.9-66.5,12.9c-30.5,0-60.5-8-86.8-22.9h-87.7c-10.3,0-18.6-8.3-18.6-18.6c0-10.3,8.3-18.6,18.6-18.6h41.9
	c-12.9-14.7-23.1-31.3-30.4-49.3h-11.5c-10.3,0-18.6-8.3-18.6-18.6s8.3-18.6,18.6-18.6h1.1c-0.6-3.7-1.1-7.4-1.5-11.1
	c-1.3-12.9-1.1-25.7,0.4-38.2h0c-10.3,0-18.6-8.3-18.6-18.6s8.3-18.6,18.6-18.6h8.8c6.3-17.6,15.4-34.2,27.3-49.3h-36
	c-10.3,0-18.6-8.3-18.6-18.6c0-10.3,8.3-18.6,18.6-18.6h76c28.8-19.4,63-30.1,98.7-30.1h0c35.1,0,69.5,10.6,98.4,30.1h36
	c10.3,0,18.6,8.3,18.6,18.6c0,9-6.3,16.4-14.8,18.2c20.5,25.9,33.3,57.2,36.6,90.8c1.7,17.1,0.9,34.1-2.3,50.6l40.7,31.8V61
	c0-22.1-17.9-40-40-40H78.5c-22.1,0-40,17.9-40,40v559.3c0,22.1,17.9,40,40,40h386.7c22.1,0,40-17.9,40-40v-72.4l-66.6-59.5
	C435.3,491.2,431.1,493,426.4,493z M445,560.9c0,10.3-8.3,18.6-18.6,18.6H117.3c-10.3,0-18.6-8.3-18.6-18.6
	c0-10.3,8.3-18.6,18.6-18.6h309.1C436.6,542.3,445,550.6,445,560.9z"/>
<path class="st0" d="M621.4,457.6l-110.9-86.5c-0.2,0.2-0.3,0.4-0.5,0.6l-61.1,74.1c-0.3,0.4-0.7,0.7-1,1.1l104.9,93.8
	c10.3,9.1,23.1,13.5,35.8,13.5c15.6,0,31.1-6.7,41.9-19.7C650,510.9,645.8,476,621.4,457.6z"/>
<path class="st0" d="M481.2,348.2l-28.7-22.4c-6.3,14.1-14.6,27.5-24.7,39.7c-10.2,12.4-21.9,23.1-34.8,32.1l27.3,24.4L481.2,348.2z
	"/>
<path class="st0" d="M427.1,284.6c1.4-6.1,2.3-12.2,2.8-18.4c3.7-43.6-13.6-88.3-50.2-118.1c-0.5-0.4-1-0.8-1.5-1.1
	c-14.3-11.4-30.2-19.5-46.8-24.4c-12.9-3.8-26.2-5.7-39.5-5.7c0,0,0,0,0,0c-13.3,0-26.5,1.9-39.3,5.6c-16.9,4.9-33,13.1-47.2,24.4
	c-7.5,5.9-14.4,12.7-20.7,20.3c-8.3,10-14.8,20.8-19.8,32.1c-4.9,11-8.2,22.5-10,34.1c-2.5,16.4-2.1,33.1,1.3,49.3
	c2.5,12,6.7,23.7,12.4,34.8c8.4,16.3,20.2,31.1,35.4,43.4c3.7,3,7.5,5.7,11.4,8.3c16,10.5,33.5,17.4,51.5,20.6
	c8.2,1.5,16.6,2.3,24.9,2.3c13.2,0,26.3-1.9,39-5.5c6-1.7,11.8-3.8,17.5-6.4c6.8-3,13.4-6.6,19.7-10.7c11.4-7.5,21.9-16.7,31-27.8
	c9.3-11.2,16.4-23.5,21.6-36.3C423.3,298.7,425.5,291.7,427.1,284.6z"/>
</svg>
