<?xml version="1.0" encoding="utf-8"?>
<!-- Generator: Adobe Illustrator 23.0.2, SVG Export Plug-In . SVG Version: 6.00 Build 0)  -->
<svg version="1.1" id="Layer_1" xmlns="http://www.w3.org/2000/svg" xmlns:xlink="http://www.w3.org/1999/xlink" x="0px" y="0px"
	 viewBox="0 0 1280 1126" style="enable-background:new 0 0 1280 1126;" xml:space="preserve">
<style type="text/css">
	.st0{fill:#E53935;}
</style>
<g transform="translate(0.000000,1126.000000) scale(0.100000,-0.100000)">
	<path class="st0" d="M6201,11240c-41-10-113-37-160-61c-70-35-105-62-187-144c-61-60-124-134-157-185c-85-132-681-1182-2962-5215
		C1942,4233,1021,2603,688,2015C355,1426,71,917,57,884c-79-187-72-394,19-559c15-28,64-86,108-130c91-90,177-139,306-175l76-20
		l5879,2l5880,3l81,27c363,124,494,499,304,878c-21,43-899,1580-1951,3417C9707,6163,8451,8356,7968,9200
		c-484,844-909,1580-946,1635c-118,177-268,311-419,373C6478,11260,6331,11272,6201,11240z M7808,7830c793-1383,2019-3523,2724-4755
		l1283-2240l-2712-3c-1492-1-3934-1-5427,0l-2715,3l1666,2945c3188,5637,3725,6583,3734,6572C6365,10348,7016,9213,7808,7830z"/>
	<path class="st0" d="M6290,7874c-14-3-61-14-104-25c-390-98-706-474-706-837c0-46,22-254,50-461c27-207,113-857,190-1446
		c201-1535,199-1517,216-1581c42-165,141-297,271-361c67-33,86-38,168-41c152-7,246,30,348,136c99,105,144,224,176,464
		c11,84,61,462,111,841c49,378,131,996,180,1375c50,378,100,756,111,840c24,182,25,305,4,387c-82,323-360,599-693,686
		C6537,7871,6346,7884,6290,7874z"/>
	<path class="st0" d="M6322,2739c-345-44-594-371-552-726c20-166,86-301,204-410c114-107,237-160,391-170c187-11,336,47,475,187
		c134,134,192,273,193,465c1,116-13,183-58,280C6855,2626,6596,2774,6322,2739z"/>
</g>
</svg>
