<?xml version="1.0" encoding="utf-8"?>
<!-- Generator: Adobe Illustrator 23.0.2, SVG Export Plug-In . SVG Version: 6.00 Build 0)  -->
<svg version="1.1" id="Capa_1" xmlns="http://www.w3.org/2000/svg" xmlns:xlink="http://www.w3.org/1999/xlink" x="0px" y="0px"
	 viewBox="0 0 512 512" style="enable-background:new 0 0 512 512;" xml:space="preserve">
<style type="text/css">
	.st0{fill:#FFFFFF;}
</style>
<g>
	<path class="st0" d="M512,280c0-41.7-29.5-75.9-66.9-78.8c-4.4-14.9-16.4-26.6-31.4-30.7C403.6,88,336.6,25,256,25
		S108.3,88,98.3,170.6c-15.1,4.1-27,15.8-31.4,30.7c-1.3,0.1-2.6,0.2-3.9,0.4V104c0-8.3-6.7-15-15-15s-15,6.7-15,15v109.6
		C13.2,227.7,0,252.2,0,280c0,41.7,29.5,75.9,66.9,78.8c4.4,14.9,16.3,26.5,31.3,30.6C104.6,426.6,137,455,176,455h3.5
		c6.3,18.6,23.9,32,44.5,32h64c25.9,0,47-21.1,47-47s-21.1-47-47-47h-64c-20.7,0-38.3,13.4-44.5,32H176c-22.7,0-41.8-15.5-47.4-36.5
		c17.6-6.1,30.4-22.9,30.4-42.5V214c0-19.8-12.8-36.6-30.6-42.6C137.8,105.1,191.6,55,256,55s118.2,50.1,127.6,116.4
		c-17.7,6-30.5,22.8-30.5,42.6v132c0,24.8,20.2,45,45,45h4c20.4,0,37.6-13.6,43.1-32.2C482.5,355.9,512,321.7,512,280z M224,423h64
		c9.4,0,17,7.6,17,17s-7.6,17-17,17h-64c-9.4,0-17-7.6-17-17S214.6,423,224,423z M30,280c0-23.8,15.4-44.3,35-48.3v96.6
		C45.4,324.3,30,303.8,30,280z M129,346c0,8.3-6.7,15-15,15h-4c-8.3,0-15-6.7-15-15c0-48.1,0-87.5,0-132c0-8.3,6.7-15,15-15h4
		c8.3,0,15,6.7,15,15V346z M417,346c0,8.3-6.7,15-15,15h-4c-8.3,0-15-6.7-15-15V214c0-8.3,6.7-15,15-15h4c8.3,0,15,6.7,15,15V346z
		 M447,328.3v-96.6c19.6,4,35,24.5,35,48.3S466.6,324.3,447,328.3z"/>
</g>
</svg>
